<svg width="31" height="30" viewBox="0 0 31 30" fill="none" xmlns="http://www.w3.org/2000/svg">
<path id="icon" d="M14.1526 22.5H17.1807V16.5H23.2371V13.5H17.1807V7.5H14.1526V13.5H8.09624V16.5H14.1526V22.5ZM15.6667 30C13.5722 30 11.6039 29.6125 9.76173 28.8375C7.9196 28.0375 6.31719 26.9625 4.95452 25.6125C3.59184 24.2625 2.50675 22.675 1.69923 20.85C0.916956 19.025 0.525818 17.075 0.525818 15C0.525818 12.925 0.916956 10.975 1.69923 9.15C2.50675 7.325 3.59184 5.7375 4.95452 4.3875C6.31719 3.0375 7.9196 1.975 9.76173 1.2C11.6039 0.4 13.5722 0 15.6667 0C17.7611 0 19.7295 0.4 21.5716 1.2C23.4137 1.975 25.0161 3.0375 26.3788 4.3875C27.7415 5.7375 28.814 7.325 29.5962 9.15C30.4038 10.975 30.8075 12.925 30.8075 15C30.8075 17.075 30.4038 19.025 29.5962 20.85C28.814 22.675 27.7415 24.2625 26.3788 25.6125C25.0161 26.9625 23.4137 28.0375 21.5716 28.8375C19.7295 29.6125 17.7611 30 15.6667 30ZM15.6667 27C19.0481 27 21.9123 25.8375 24.2591 23.5125C26.6059 21.1875 27.7793 18.35 27.7793 15C27.7793 11.65 26.6059 8.8125 24.2591 6.4875C21.9123 4.1625 19.0481 3 15.6667 3C12.2852 3 9.42106 4.1625 7.07423 6.4875C4.7274 8.8125 3.55399 11.65 3.55399 15C3.55399 18.35 4.7274 21.1875 7.07423 23.5125C9.42106 25.8375 12.2852 27 15.6667 27Z" fill="#F6DF08"/>
</svg>
