<svg width="28" height="29" viewBox="0 0 28 29" fill="none" xmlns="http://www.w3.org/2000/svg">
<path id="Icon (Stroke)" fill-rule="evenodd" clip-rule="evenodd" d="M8.75117 0C9.47588 0 10.0634 0.59017 10.0634 1.31818V2.63636H17.9366V1.31818C17.9366 0.59017 18.5241 0 19.2488 0C19.9735 0 20.561 0.59017 20.561 1.31818V2.63636H23.1854C25.3596 2.63636 27.1221 4.40687 27.1221 6.59091V25.0455C27.1221 27.2295 25.3596 29 23.1854 29H4.81455C2.64041 29 0.87793 27.2295 0.87793 25.0455V6.59091C0.87793 4.40687 2.64041 2.63636 4.81455 2.63636H7.43896V1.31818C7.43896 0.59017 8.02646 0 8.75117 0ZM7.43896 5.27273H4.81455C4.08984 5.27273 3.50234 5.8629 3.50234 6.59091V10.5455H24.4976V6.59091C24.4976 5.8629 23.9102 5.27273 23.1854 5.27273H20.561V6.59091C20.561 7.31892 19.9735 7.90909 19.2488 7.90909C18.5241 7.90909 17.9366 7.31892 17.9366 6.59091V5.27273H10.0634V6.59091C10.0634 7.31892 9.47588 7.90909 8.75117 7.90909C8.02646 7.90909 7.43896 7.31892 7.43896 6.59091V5.27273ZM24.4976 13.1818H3.50234V25.0455C3.50234 25.7735 4.08984 26.3636 4.81455 26.3636H23.1854C23.9102 26.3636 24.4976 25.7735 24.4976 25.0455V13.1818Z" fill="#F6DF08"/>
</svg>
