<svg width="67" height="67" viewBox="0 0 67 67" fill="none" xmlns="http://www.w3.org/2000/svg">
<rect width="67" height="67" rx="8" transform="matrix(-1 0 0 1 67 0)" fill="#F7F7F8"/>
<path fill-rule="evenodd" clip-rule="evenodd" d="M19.1254 20.7818C19.3466 20.305 19.8244 20 20.35 20H47.35C47.8756 20 48.3534 20.305 48.5746 20.7818C48.7958 21.2586 48.7202 21.8204 48.3808 22.2217L37.9 34.6153V45.65C37.9 46.1179 37.6578 46.5524 37.2598 46.7984C36.8618 47.0444 36.3648 47.0667 35.9463 46.8575L30.5463 44.1575C30.0889 43.9288 29.8 43.4613 29.8 42.95V34.6153L19.3192 22.2217C18.9798 21.8204 18.9042 21.2586 19.1254 20.7818ZM23.2597 22.7L32.1808 33.2493C32.3869 33.493 32.5 33.8018 32.5 34.121V42.1157L35.2 43.4657V34.121C35.2 33.8018 35.3131 33.493 35.5192 33.2493L44.4404 22.7H23.2597Z" fill="#746464"/>
</svg>
