<svg width="29" height="28" viewBox="0 0 29 28" fill="none" xmlns="http://www.w3.org/2000/svg">
<path fill-rule="evenodd" clip-rule="evenodd" d="M12.7099 2.65089C7.16823 2.65089 2.67578 7.10155 2.67578 12.5917C2.67578 18.0819 7.16823 22.5325 12.7099 22.5325C15.4157 22.5325 17.8713 21.4716 19.676 19.7467C19.7122 19.6996 19.752 19.6543 19.7954 19.6113C19.8389 19.5683 19.8845 19.5288 19.9321 19.4929C21.6732 17.705 22.7441 15.2723 22.7441 12.5917C22.7441 7.10155 18.2517 2.65089 12.7099 2.65089ZM22.5936 20.509C24.3611 18.3461 25.4199 15.5914 25.4199 12.5917C25.4199 5.6375 19.7295 0 12.7099 0C5.69044 0 0 5.6375 0 12.5917C0 19.5459 5.69044 25.1834 12.7099 25.1834C15.7378 25.1834 18.5183 24.1345 20.7016 22.3835L25.979 27.6118C26.5015 28.1294 27.3486 28.1294 27.8711 27.6118C28.3935 27.0942 28.3935 26.2549 27.8711 25.7373L22.5936 20.509Z" fill="#746464"/>
</svg>
